HIERARCHY
ROOT Hips
{
	OFFSET 0.000000 0.000000 0.000000
	CHANNELS 6 Xposition Yposition Zposition Zrotation Yrotation Xrotation 
	JOINT LHipJoint
	{
		OFFSET 0.000000 0.000000 0.000000
		CHANNELS 3 Zrotation Yrotation Xrotation
		JOINT LeftUpLeg
		{
			OFFSET 1.363060 -1.794630 0.839290
			CHANNELS 3 Zrotation Yrotation Xrotation
			JOINT LeftLeg
			{
				OFFSET 2.448110 -6.726130 0.000000
				CHANNELS 3 Zrotation Yrotation Xrotation
				JOINT LeftFoot
				{
					OFFSET 2.562200 -7.039590 0.000000
					CHANNELS 3 Zrotation Yrotation Xrotation
					JOINT LeftToeBase
					{
						OFFSET 0.157640 -0.433110 2.322550
						CHANNELS 3 Zrotation Yrotation Xrotation
						End Site
						{
							OFFSET 0.000000 0.000000 0.000000
						}
					}
				}
			}
		}
	}
	JOINT RHipJoint
	{
		OFFSET 0.000000 0.000000 0.000000
		CHANNELS 3 Zrotation Yrotation Xrotation
		JOINT RightUpLeg
		{
			OFFSET -1.305520 -1.794630 0.839290
			CHANNELS 3 Zrotation Yrotation Xrotation
			JOINT RightLeg
			{
				OFFSET -2.542530 -6.985550 0.000000
				CHANNELS 3 Zrotation Yrotation Xrotation
				JOINT RightFoot
				{
					OFFSET -2.568260 -7.056230 0.000000
					CHANNELS 3 Zrotation Yrotation Xrotation
					JOINT RightToeBase
					{
						OFFSET -0.164730 -0.452590 2.363150
						CHANNELS 3 Zrotation Yrotation Xrotation
						End Site
						{
							OFFSET 0.000000 0.000000 0.000000
						}
					}
				}
			}
		}
	}
}
MOTION
Frames: 19
Frame Time: 0.008333
25.644683 16.673107 1.825797 144.624601 -85.748010 -130.224399 -8.309483 1.124174 4.982128 -14.271275 -1.731107 -45.103755 -2.592975 0.235485 21.753104 0.591983 4.536143 3.194801 1.481499 -0.000000 -20.595300 11.661148 -5.704162 2.407949 2.572620 -4.765529 4.964282 1.091257 -1.508521 18.540060 0.247231 4.621605 9.137968 1.120601 -0.000000 -77.047200
25.486835 16.708913 1.838763 143.660686 -85.610486 -129.517911 -8.223361 1.246417 4.952624 -14.678698 -1.460529 -44.140800 -2.655604 0.190507 21.745438 0.581635 4.357487 2.429873 1.359900 -0.000001 -20.242600 11.883325 -5.761710 2.415072 1.927283 -5.279412 3.811632 0.848295 -1.730895 21.119712 0.177850 5.032269 11.379114 1.475100 0.000001 -78.219200
25.333045 16.745030 1.853389 142.987099 -85.443828 -129.098710 -8.149833 1.364254 4.927046 -15.065024 -1.181151 -43.128531 -2.719818 0.134119 21.604201 0.578141 4.225791 1.712964 1.255400 -0.000000 -19.889100 12.096191 -5.789343 2.414234 1.287242 -5.831971 2.530944 0.596535 -1.931537 23.844537 0.071513 5.382116 13.724035 1.863300 -0.000001 -78.689100
25.183567 16.781023 1.869426 142.515166 -85.257622 -128.877856 -8.083800 1.477796 4.905382 -15.432463 -0.903913 -42.080102 -2.783288 0.068415 21.342553 0.581588 4.150172 1.070037 1.170500 -0.000000 -19.555100 12.302026 -5.782288 2.405376 0.662801 -6.410773 1.145351 0.344759 -2.105630 26.674050 -0.073183 5.610333 16.122968 2.249700 -0.000000 -78.379600
25.038309 16.816605 1.886837 142.211913 -85.063967 -128.818520 -8.025482 1.585261 4.884926 -15.775850 -0.629804 -41.012075 -2.843558 -0.003464 20.985149 0.590310 4.123331 0.510014 1.102700 -0.000001 -19.250200 12.495715 -5.738311 2.388292 0.078791 -6.990681 -0.313604 0.104218 -2.251580 29.560738 -0.253509 5.641073 18.499733 2.577401 0.000000 -77.286499
24.897236 16.851576 1.905410 141.990320 -84.872478 -128.835811 -7.970439 1.686746 4.864677 -16.094555 -0.370283 -39.927770 -2.899521 -0.079759 20.547209 0.603479 4.142758 0.034027 1.050601 0.000000 -18.982200 12.678058 -5.656641 2.359497 -0.457022 -7.564753 -1.818784 -0.115363 -2.372135 32.467049 -0.462101 5.413764 20.759174 2.782399 -0.000000 -75.506699
24.760156 16.885838 1.925017 141.805643 -84.692075 -128.886791 -7.918206 1.781026 4.842189 -16.383983 -0.130902 -38.829784 -2.950274 -0.158459 20.047138 0.619566 4.197249 -0.368248 1.010400 0.000000 -18.749300 12.845805 -5.539697 2.315385 -0.932303 -8.121482 -3.343194 -0.307241 -2.473612 35.358065 -0.689618 4.871184 22.796275 2.797300 -0.000000 -73.233300
24.627172 16.919353 1.945758 141.643601 -84.530754 -128.958449 -7.871278 1.866015 4.814296 -16.636616 0.087130 -37.720750 -2.995122 -0.237641 19.503776 0.636816 4.270880 -0.714926 0.977100 -0.000000 -18.540100 12.993781 -5.392558 2.252539 -1.334078 -8.648797 -4.864783 -0.469245 -2.564516 38.205434 -0.926323 3.974094 24.505262 2.566900 -0.000000 -70.713200
24.497950 16.952146 1.967670 141.492385 -84.393318 -129.039338 -7.831768 1.940462 4.778995 -16.846843 0.280723 -36.598465 -3.033808 -0.316181 18.929478 0.654183 4.351874 -1.024761 0.946700 0.000000 -18.341200 13.118891 -5.221535 2.168486 -1.656140 -9.138194 -6.368877 -0.604148 -2.653552 40.988940 -1.163777 2.714799 25.792926 2.066300 -0.000000 -68.179100
24.372198 16.984245 1.990850 141.362789 -84.283320 -129.142384 -7.803580 2.002580 4.734276 -17.008161 0.450926 -35.463498 -3.066122 -0.393079 18.335459 0.670574 4.427264 -1.317157 0.915300 -0.000000 -18.136401 13.217366 -5.033690 2.062264 -1.891317 -9.579924 -7.846487 -0.717827 -2.748285 43.693804 -1.395225 1.121208 26.583183 1.309500 0.000000 -65.789000
24.249743 17.015684 2.015439 141.278237 -84.203187 -129.288772 -7.790857 2.051501 4.678991 -17.115640 0.601447 -34.317171 -3.091899 -0.467663 17.730486 0.685189 4.486751 -1.607844 0.879800 -0.000001 -17.910100 13.286416 -4.836367 1.935153 -2.034654 -9.965057 -9.293816 -0.817421 -2.853715 46.306806 -1.615555 -0.740167 26.827339 0.352900 -0.000000 -63.603200
24.130024 17.046449 2.041539 141.266810 -84.154669 -129.506924 -7.797474 2.086450 4.611830 -17.166361 0.739439 -33.163742 -3.111036 -0.539246 17.122208 0.697250 4.521582 -1.907861 0.838099 0.000000 -17.650901 13.324133 -4.635978 1.789573 -2.082165 -10.286289 -10.710689 -0.909420 -2.972228 48.814308 -1.820691 -2.770518 26.508204 -0.712500 0.000000 -61.598800
24.013202 17.076569 2.069152 141.348170 -84.137899 -129.817400 -7.825621 2.108329 4.533683 -17.160354 0.870586 -32.004458 -3.123533 -0.607699 16.511612 0.706462 4.529244 -2.219608 0.790200 0.000000 -17.355500 13.330651 -4.438310 1.630332 -2.035195 -10.538732 -12.096390 -0.998496 -3.103085 51.198677 -2.007179 -4.850064 25.646220 -1.777300 0.000000 -59.689100
23.898757 17.105913 2.098326 141.551127 -84.153664 -130.246121 -7.877336 2.117783 4.443679 -17.099344 1.006348 -30.849063 -3.129544 -0.672162 15.905928 0.711939 4.503884 -2.543000 0.736100 0.000000 -17.025401 13.306240 -4.247567 1.462346 -1.894102 -10.718594 -13.452670 -1.086487 -3.243285 53.439697 -2.171845 -6.857030 24.298384 -2.735300 -0.000000 -57.783900
23.786150 17.134395 2.128902 141.889768 -84.200891 -130.805056 -7.952438 2.116912 4.342743 -16.988190 1.154837 -29.703626 -3.129454 -0.732221 15.306424 0.713227 4.445308 -2.870426 0.677600 0.000000 -16.671500 13.253070 -4.066646 1.291717 -1.664712 -10.824859 -14.779284 -1.172719 -3.387831 55.514145 -2.311665 -8.681525 22.555154 -3.502400 -0.000000 -55.795500
23.675260 17.161867 2.160714 142.367555 -84.277846 -131.496827 -8.049548 2.108220 4.231924 -16.833494 1.323850 -28.575477 -3.123903 -0.787232 14.715116 0.709675 4.353030 -3.191049 0.616800 0.000000 -16.310500 13.174093 -3.896771 1.124162 -1.356391 -10.860199 -16.075033 -1.254524 -3.530819 57.399216 -2.423769 -10.238233 20.530651 -4.030099 0.000000 -53.665200
23.565904 17.188195 2.193478 142.971996 -84.382360 -132.309478 -8.165703 2.094498 4.112633 -16.643350 1.518396 -27.471379 -3.113745 -0.836501 14.134448 0.700777 4.227663 -3.493101 0.556300 0.000000 -15.962700 13.073286 -3.737480 0.964477 -0.981412 -10.831338 -17.338713 -1.328195 -3.666357 59.074784 -2.505774 -11.472683 18.352093 -4.309100 -0.000000 -51.381999
23.457360 17.213174 2.226859 143.679751 -84.512007 -133.216615 -8.296793 2.078934 3.986937 -16.426841 1.740429 -26.397250 -3.100190 -0.879578 13.566618 0.686102 4.069515 -3.766170 0.498000 0.000000 -15.649200 12.955293 -3.587412 0.816422 -0.554443 -10.748925 -18.569167 -1.389959 -3.789230 60.524946 -2.556023 -12.361045 16.145438 -4.364200 0.000000 -48.989500
23.349455 17.236655 2.260558 144.454513 -84.664361 -134.181371 -8.438132 2.064150 3.856920 -16.192959 1.987692 -25.357732 -3.084419 -0.916016 13.014643 0.665496 3.879613 -4.002040 0.443700 -0.000000 -15.388700 12.824850 -3.443959 0.681986 -0.091342 -10.625961 -19.765849 -1.436898 -3.895509 61.738832 -2.574171 -12.907391 14.025503 -4.243200 0.000000 -46.584300
